# Blender 3.3.1
# www.blender.org
mtllib walls.mtl
o Plane
v -1.028638 -0.008637 1.035635
v 0.971362 -0.008637 1.035635
v -1.028638 -0.008637 -0.964365
v 0.971362 -0.008637 -0.964365
v -1.035828 -0.050225 1.039196
v 0.964172 -0.050225 1.039196
v -1.035828 1.949500 1.005981
v 0.964172 1.949500 1.005981
v 0.967662 1.944162 1.043531
v 0.950138 -0.055762 1.043531
v 0.967662 1.944162 -0.956469
v 0.950138 -0.055762 -0.956469
vn -0.0000 1.0000 -0.0000
vn -0.0000 0.0166 0.9999
vn 1.0000 -0.0088 -0.0000
vt 0.000000 0.000000
vt 1.000000 0.000000
vt 0.000000 1.000000
vt 1.000000 1.000000
vt 0.000000 0.000000
vt 1.000000 0.000000
vt 0.000000 1.000000
vt 1.000000 1.000000
vt 0.000000 0.000000
vt 1.000000 0.000000
vt 0.000000 1.000000
vt 1.000000 1.000000
s 0
usemtl Material.001
f 1/1/1 2/2/1 4/4/1 3/3/1
f 5/5/2 6/6/2 8/8/2 7/7/2
f 9/9/3 10/10/3 12/12/3 11/11/3
