# Blender v3.0.1 OBJ File: ''
# www.blender.org
mtllib untitled.mtl
o Cylinder_Cylinder.002
v 0.000000 -0.011975 0.898942
v -0.006476 -0.006476 0.007966
v 0.001991 -0.009983 0.007966
v -0.011975 -0.000000 0.898942
v -0.009983 0.001991 0.007966
v -0.008467 0.008467 0.898942
v -0.006476 0.010459 0.007966
v 0.000000 0.011975 0.898942
v 0.001991 0.013966 0.007966
v 0.008467 0.008467 0.898942
v 0.010459 0.010459 0.007966
v 0.013966 0.001991 0.007966
v 0.050917 -0.000000 0.873881
v 0.011975 -0.000000 0.898942
v 0.010459 -0.006476 0.007966
v 0.008467 -0.008467 0.898942
v 0.036004 0.036004 0.873881
v 0.000000 0.050917 0.873881
v 0.000000 -0.000000 0.999425
v -0.036004 0.036004 0.873881
v 0.036004 -0.036004 0.873881
v -0.036004 -0.036004 0.873881
v -0.050917 -0.000000 0.873881
v 0.000000 -0.050917 0.873881
v -0.008467 -0.008467 0.898942
vn -0.3828 -0.9238 -0.0029
vn -0.3827 -0.9239 -0.0029
vn -0.9239 -0.3827 -0.0029
vn -0.9238 -0.3828 -0.0029
vn -0.9239 0.3826 -0.0012
vn -0.9238 0.3828 -0.0012
vn -0.3827 0.9239 0.0012
vn -0.3828 0.9238 0.0012
vn 0.3826 0.9239 0.0029
vn 0.3828 0.9238 0.0029
vn 0.9238 0.3828 0.0029
vn 0.9239 0.3826 0.0029
vn -0.5281 -0.2188 -0.8205
vn -0.5281 -0.2187 -0.8206
vn 0.9238 -0.3828 0.0012
vn 0.9239 -0.3827 0.0012
vn 0.3828 -0.9238 -0.0012
vn 0.3826 -0.9239 -0.0012
vn -0.0000 0.0000 -1.0000
vn 0.3583 0.8651 0.3509
vn 0.2188 -0.5280 -0.8206
vn 0.2187 -0.5281 -0.8206
vn -0.5280 0.2187 -0.8206
vn -0.5281 0.2187 -0.8206
vn -0.5280 0.2188 -0.8206
vn 0.5280 0.2187 -0.8206
vn 0.5281 0.2187 -0.8206
vn -0.2188 -0.5280 -0.8206
vn -0.2187 -0.5281 -0.8206
vn -0.2188 0.5281 -0.8205
vn -0.2187 0.5281 -0.8206
vn 0.2187 0.5280 -0.8206
vn 0.2187 0.5281 -0.8206
vn 0.2188 0.5280 -0.8206
vn 0.5280 -0.2187 -0.8206
vn 0.5281 -0.2187 -0.8206
vn 0.5280 -0.2188 -0.8206
vn -0.8651 0.3583 0.3509
vn -0.3583 -0.8651 0.3509
vn 0.3583 -0.8651 0.3509
vn 0.8651 0.3583 0.3509
vn -0.3583 0.8651 0.3509
vn -0.8651 -0.3583 0.3509
vn 0.8651 -0.3583 0.3509
vn 0.5280 0.2188 -0.8206
usemtl Z.001
s 1
f 1//1 2//2 3//2
f 2//3 4//4 5//3
f 5//5 6//6 7//5
f 7//7 8//8 9//7
f 9//9 10//10 11//9
f 10//11 12//12 11//12
f 10//13 13//14 14//13
f 14//15 15//16 12//16
f 16//17 3//18 15//18
f 7//19 11//19 15//19
f 17//20 18//20 19//20
f 8//21 20//22 18//22
f 14//23 21//24 16//25
f 4//26 22//27 23//27
f 8//28 17//29 10//28
f 16//30 24//31 1//30
f 1//32 22//33 25//34
f 4//35 20//36 6//37
f 20//38 23//38 19//38
f 22//39 24//39 19//39
f 24//40 21//40 19//40
f 13//41 17//41 19//41
f 18//42 20//42 19//42
f 23//43 22//43 19//43
f 21//44 13//44 19//44
f 1//1 25//1 2//2
f 2//3 25//4 4//4
f 5//5 4//6 6//6
f 7//7 6//8 8//8
f 9//9 8//10 10//10
f 10//11 14//11 12//12
f 10//13 17//14 13//14
f 14//15 16//15 15//16
f 16//17 1//17 3//18
f 15//19 3//19 2//19
f 2//19 5//19 7//19
f 7//19 9//19 11//19
f 11//19 12//19 15//19
f 15//19 2//19 7//19
f 8//21 6//21 20//22
f 14//23 13//24 21//24
f 4//26 25//45 22//27
f 8//28 18//29 17//29
f 16//30 21//31 24//31
f 1//32 24//33 22//33
f 4//35 23//36 20//36
o Cylinder.001_Cylinder.001
v 0.000000 0.898942 0.011975
v -0.006476 0.007966 0.010459
v 0.001991 0.007966 0.013966
v -0.008467 0.898942 0.008467
v -0.009983 0.007966 0.001991
v -0.011975 0.898942 0.000000
v -0.006476 0.007966 -0.006476
v 0.000000 0.898942 -0.011975
v 0.001991 0.007966 -0.009983
v 0.008467 0.898942 -0.008467
v 0.010459 0.007966 -0.006476
v 0.011975 0.898942 0.000000
v 0.013966 0.007966 0.001991
v 0.050917 0.873881 0.000000
v 0.008467 0.898942 0.008467
v 0.010459 0.007966 0.010459
v 0.036004 0.873881 -0.036004
v 0.000000 0.873881 -0.050917
v 0.000000 0.999425 0.000000
v -0.008467 0.898942 -0.008467
v 0.036004 0.873881 0.036004
v -0.050917 0.873881 0.000000
v 0.000000 0.873881 0.050917
v -0.036004 0.873881 0.036004
v -0.036004 0.873881 -0.036004
vn -0.3828 0.0012 0.9238
vn -0.3827 0.0012 0.9239
vn -0.9238 -0.0012 0.3828
vn -0.9239 -0.0012 0.3826
vn -0.9238 -0.0029 -0.3828
vn -0.9239 -0.0029 -0.3827
vn -0.3827 -0.0029 -0.9239
vn -0.3828 -0.0029 -0.9238
vn 0.3826 -0.0012 -0.9239
vn 0.3828 -0.0012 -0.9238
vn 0.9239 0.0012 -0.3827
vn 0.9238 0.0012 -0.3828
vn -0.5281 -0.8205 0.2188
vn -0.5281 -0.8206 0.2187
vn 0.9239 0.0029 0.3826
vn 0.9238 0.0029 0.3828
vn 0.3828 0.0029 0.9238
vn 0.3826 0.0029 0.9239
vn 0.0000 -1.0000 -0.0000
vn 0.3583 0.3509 -0.8651
vn 0.2188 -0.8205 0.5281
vn 0.2187 -0.8206 0.5281
vn -0.5281 -0.8205 -0.2188
vn -0.5281 -0.8206 -0.2187
vn 0.5281 -0.8205 -0.2188
vn 0.5281 -0.8206 -0.2187
vn -0.2187 -0.8206 0.5280
vn -0.2187 -0.8206 0.5281
vn -0.2188 -0.8206 0.5280
vn -0.2187 -0.8206 -0.5280
vn -0.2187 -0.8206 -0.5281
vn 0.2187 -0.8206 -0.5280
vn 0.2187 -0.8206 -0.5281
vn 0.2188 -0.8206 -0.5280
vn 0.5281 -0.8205 0.2188
vn 0.5281 -0.8206 0.2187
vn -0.8651 0.3509 -0.3583
vn -0.3583 0.3509 0.8651
vn 0.3583 0.3509 0.8651
vn 0.8651 0.3509 -0.3583
vn -0.3583 0.3509 -0.8651
vn -0.8651 0.3509 0.3583
vn 0.8651 0.3509 0.3583
vn -0.2188 -0.8206 -0.5280
usemtl Y.001
s 1
f 26//46 27//47 28//47
f 29//48 30//49 27//49
f 31//50 32//51 30//51
f 32//52 33//53 34//52
f 34//54 35//55 36//54
f 36//56 37//57 38//56
f 35//58 39//59 37//58
f 38//60 40//61 41//60
f 40//62 28//63 41//63
f 32//64 36//64 41//64
f 42//65 43//65 44//65
f 45//66 43//67 33//66
f 40//68 39//69 46//69
f 29//70 47//71 31//70
f 33//72 42//73 35//74
f 26//75 46//76 48//76
f 26//77 49//78 29//79
f 45//80 47//81 50//81
f 50//82 47//82 44//82
f 49//83 48//83 44//83
f 48//84 46//84 44//84
f 39//85 42//85 44//85
f 43//86 50//86 44//86
f 47//87 49//87 44//87
f 46//88 39//88 44//88
f 26//46 29//46 27//47
f 29//48 31//48 30//49
f 31//50 45//50 32//51
f 32//52 45//53 33//53
f 34//54 33//55 35//55
f 36//56 35//57 37//57
f 35//58 42//59 39//59
f 38//60 37//61 40//61
f 40//62 26//62 28//63
f 41//64 28//64 27//64
f 27//64 30//64 32//64
f 32//64 34//64 36//64
f 36//64 38//64 41//64
f 41//64 27//64 32//64
f 45//66 50//67 43//67
f 40//68 37//68 39//69
f 29//70 49//71 47//71
f 33//72 43//73 42//73
f 26//75 40//89 46//76
f 26//77 48//78 49//78
f 45//80 31//80 47//81
o Cylinder.002_Cylinder.001
v 0.007966 0.001991 0.013966
v 0.898942 0.008468 0.008467
v 0.007966 0.010459 0.010459
v 0.007966 0.013966 0.001991
v 0.898942 0.011975 0.000000
v 0.007966 0.010459 -0.006476
v 0.898942 0.008468 -0.008467
v 0.007966 0.001991 -0.009983
v 0.898942 0.000000 -0.011975
v 0.007966 -0.006476 -0.006476
v 0.898942 -0.011975 -0.000000
v 0.007966 -0.009983 0.001991
v 0.898942 -0.008467 -0.008467
v 0.873881 -0.050917 -0.000000
v 0.898942 -0.008467 0.008467
v 0.007966 -0.006476 0.010459
v 0.898942 -0.000000 0.011975
v 0.873881 -0.036004 -0.036004
v 0.873881 0.000000 -0.050917
v 0.999425 0.000000 0.000000
v 0.873881 0.036004 -0.036004
v 0.873881 -0.036004 0.036004
v 0.873881 0.036004 0.036004
v 0.873881 0.050917 0.000000
v 0.873881 -0.000000 0.050917
vn 0.0029 0.3826 0.9239
vn 0.0029 0.3827 0.9239
vn 0.0029 0.9239 0.3827
vn 0.0029 0.9239 0.3826
vn 0.0012 0.9239 -0.3827
vn -0.0012 0.3827 -0.9239
vn -0.0012 0.3826 -0.9239
vn -0.0029 -0.3828 -0.9238
vn -0.0029 -0.3827 -0.9239
vn -0.0029 -0.9239 -0.3827
vn -0.0029 -0.9238 -0.3828
vn -0.8206 0.5281 0.2188
vn -0.8206 0.5281 0.2187
vn -0.8205 0.5281 0.2188
vn -0.0012 -0.9239 0.3826
vn -0.0012 -0.9238 0.3828
vn 0.0012 -0.3827 0.9239
vn 0.0012 -0.3828 0.9238
vn -1.0000 0.0000 0.0000
vn 0.3509 -0.3583 -0.8651
vn -0.8206 -0.2187 0.5281
vn -0.8205 0.5281 -0.2188
vn -0.8206 0.5281 -0.2187
vn -0.8205 -0.5281 -0.2187
vn -0.8206 -0.5281 -0.2187
vn -0.8206 0.2187 0.5280
vn -0.8206 0.2187 0.5281
vn -0.8206 0.2188 0.5280
vn -0.8206 0.2187 -0.5280
vn -0.8206 0.2187 -0.5281
vn -0.8206 -0.2187 -0.5281
vn -0.8206 -0.5281 0.2187
vn -0.8205 -0.5281 0.2187
vn 0.3509 0.8651 -0.3583
vn 0.3509 0.3583 0.8651
vn 0.3509 -0.3583 0.8651
vn 0.3509 -0.8651 -0.3583
vn 0.3509 0.3583 -0.8651
vn 0.3509 0.8651 0.3583
vn 0.3509 -0.8651 0.3583
vn -0.8206 -0.2187 0.5280
vn -0.8206 0.2188 -0.5280
vn -0.8205 -0.2188 -0.5281
usemtl X.001
s 1
f 51//90 52//91 53//90
f 52//92 54//93 53//93
f 55//94 56//94 54//94
f 57//95 58//96 56//96
f 59//97 60//98 58//98
f 60//99 61//100 62//99
f 63//101 64//102 61//103
f 62//104 65//105 66//104
f 66//106 67//107 51//106
f 60//108 62//108 66//108
f 68//109 69//109 70//109
f 59//110 71//110 69//110
f 65//111 64//112 72//112
f 55//113 73//114 74//114
f 59//115 68//116 63//117
f 67//118 72//119 75//119
f 52//120 75//120 73//120
f 55//121 71//121 57//122
f 71//123 74//123 70//123
f 73//124 75//124 70//124
f 75//125 72//125 70//125
f 64//126 68//126 70//126
f 69//127 71//127 70//127
f 74//128 73//128 70//128
f 72//129 64//129 70//129
f 51//90 67//91 52//91
f 52//92 55//92 54//93
f 55//94 57//94 56//94
f 57//95 59//95 58//96
f 59//97 63//97 60//98
f 60//99 63//100 61//100
f 63//101 68//102 64//102
f 62//104 61//105 65//105
f 66//106 65//107 67//107
f 66//108 51//108 56//108
f 51//108 53//108 56//108
f 53//108 54//108 56//108
f 56//108 58//108 66//108
f 58//108 60//108 66//108
f 59//110 57//130 71//110
f 65//111 61//111 64//112
f 55//113 52//113 73//114
f 59//115 69//116 68//116
f 67//118 65//131 72//119
f 52//120 67//132 75//120
f 55//121 74//121 71//121
o Sphere.001
v 0.000000 0.000000 -0.038085
v 0.000000 0.026931 -0.026931
v 0.026931 0.000000 -0.026931
v 0.000000 0.026931 0.026930
v 0.038085 0.000000 0.000000
v 0.000000 0.038085 0.000000
v 0.000000 -0.000000 0.038085
v 0.026931 -0.000000 0.026930
v 0.000000 -0.026931 0.026930
v 0.000000 -0.038086 -0.000000
v 0.000000 -0.026931 -0.026931
v -0.026931 0.000000 -0.026931
v -0.038085 0.000000 0.000000
v -0.026931 -0.000000 0.026930
vn 0.3574 0.3574 -0.8629
vn 0.6786 0.6786 0.2811
vn 0.6786 0.6786 -0.2811
vn 0.3574 0.3574 0.8629
vn 0.6786 -0.6786 0.2811
vn 0.6786 -0.6786 -0.2811
vn 0.3574 -0.3574 0.8629
vn 0.3574 -0.3574 -0.8629
vn -0.3574 -0.3574 -0.8629
vn -0.6786 -0.6786 0.2811
vn -0.6786 -0.6786 -0.2811
vn -0.3574 -0.3574 0.8629
vn -0.3574 0.3574 -0.8629
vn -0.6786 0.6786 0.2811
vn -0.6786 0.6786 -0.2811
vn -0.3574 0.3574 0.8629
usemtl Origin.001
s 1
f 76//133 77//133 78//133
f 79//134 80//134 81//134
f 81//135 78//135 77//135
f 79//136 82//136 83//136
f 80//137 84//137 85//137
f 80//138 86//138 78//138
f 83//139 82//139 84//139
f 76//140 78//140 86//140
f 76//141 86//141 87//141
f 84//142 88//142 85//142
f 86//143 88//143 87//143
f 84//144 82//144 89//144
f 76//145 87//145 77//145
f 89//146 81//146 88//146
f 88//147 77//147 87//147
f 89//148 82//148 79//148
f 79//134 83//134 80//134
f 81//135 80//135 78//135
f 80//137 83//137 84//137
f 80//138 85//138 86//138
f 84//142 89//142 88//142
f 86//143 85//143 88//143
f 89//146 79//146 81//146
f 88//147 81//147 77//147
